# xmcd
# 
# Track frame offsets:
#     150
#     20869
#     48009
#     63291
#     77381
#     108629
#     124801
#     136902
#     155429
#     168106
# 
# Disc length: 2478
# 
# Revision: 2
# Processed by: cddbd v1.5.2PL0 Copyright (c) Steve Scherf et al.
# Submitted via: BonkEnc v1.0.8
# 
DISCID=7709ac0a
DTITLE=Abenteuer and Wissen - Maja Nielsen - Im Königreich Der Eisbären
DYEAR=2005
DGENRE=Hörbuch
TTITLE0=Überfall In Kinnvika
TTITLE1=Forschung Im Eis
TTITLE2=Kirche Im Eis
TTITLE3=Begegnung Im Pub
TTITLE4=Experiment Des Lebens
TTITLE5=Eisbären Und Hauke-TV
TTITLE6=Klogang Und Wäsche
TTITLE7=Polarnacht
TTITLE8=Messungen Mit Besuch
TTITLE9=Abschied Von Kinnvika
EXTD=
EXTT0=
EXTT1=
EXTT2=
EXTT3=
EXTT4=
EXTT5=
EXTT6=
EXTT7=
EXTT8=
EXTT9=
PLAYORDER=
